<svg width="100" height="20" viewBox="-7 6 50 25" fill="none" xmlns="http://www.w3.org/2000/svg">
<path d="M7.18566 22.8116C7.18566 22.1817 6.69072 21.671 6.08018 21.671H1.10549C0.494943 21.671 0 22.1817 0 22.8116V27.9442C0 28.5742 0.494943 29.0848 1.10549 29.0848H5.52743C6.13798 29.0848 6.63292 29.5955 6.63292 30.2254V34.7877C6.63292 35.4177 7.12786 35.9283 7.73841 35.9283H12.7131C13.3236 35.9283 13.8186 35.4177 13.8186 34.7877V29.6551C13.8186 29.0252 13.3236 28.5145 12.7131 28.5145H8.29115C7.68061 28.5145 7.18566 28.0039 7.18566 27.374V22.8116Z" fill="url(#paint0_linear_35_2010)"/>
<path d="M13.8186 1.14058C13.8186 0.510656 13.3236 0 12.7131 0H7.73841C7.12786 0 6.63292 0.510656 6.63292 1.14058V5.70291C6.63292 6.33283 6.13798 6.84349 5.52743 6.84349H1.10549C0.494943 6.84349 0 7.35414 0 7.98407V13.1167C0 13.7466 0.494943 14.2573 1.10549 14.2573H6.08018C6.69072 14.2573 7.18566 13.7466 7.18566 13.1167V8.55436C7.18566 7.92443 7.68061 7.41378 8.29115 7.41378H12.7131C13.3236 7.41378 13.8186 6.90312 13.8186 6.2732V1.14058Z" fill="url(#paint1_linear_35_2010)"/>
<path d="M22.1097 1.14058C22.1097 0.510656 22.6047 0 23.2152 0H28.1899C28.8005 0 29.2954 0.510656 29.2954 1.14058V5.70291C29.2954 6.33283 29.7903 6.84349 30.4009 6.84349H34.8228C35.4334 6.84349 35.9283 7.35414 35.9283 7.98407V13.1167C35.9283 13.7466 35.4334 14.2573 34.8228 14.2573H29.8481C29.2376 14.2573 28.7426 13.7466 28.7426 13.1167V8.55436C28.7426 7.92443 28.2477 7.41378 27.6372 7.41378H23.2152C22.6047 7.41378 22.1097 6.90312 22.1097 6.2732V1.14058Z" fill="url(#paint2_linear_35_2010)"/>
<path d="M28.7426 22.8116C28.7426 22.1817 29.2376 21.671 29.8481 21.671H34.8228C35.4334 21.671 35.9283 22.1817 35.9283 22.8116V27.9442C35.9283 28.5742 35.4334 29.0848 34.8228 29.0848H30.4009C29.7903 29.0848 29.2954 29.5955 29.2954 30.2254V34.7877C29.2954 35.4177 28.8005 35.9283 28.1899 35.9283H23.2152C22.6047 35.9283 22.1097 35.4177 22.1097 34.7877V29.6551C22.1097 29.0252 22.6047 28.5145 23.2152 28.5145H27.6372C28.2477 28.5145 28.7426 28.0039 28.7426 27.374V22.8116Z" fill="url(#paint3_linear_35_2010)"/>
<path d="M12.5804 18.6039C12.3267 18.2175 12.3267 17.7108 12.5804 17.3245L17.0489 10.2132C17.4874 9.5453 18.4409 9.5453 18.8794 10.2132L23.348 17.3245C23.6016 17.7108 23.6016 18.2175 23.348 18.6038L18.8794 25.7152C18.4409 26.383 17.4874 26.383 17.0489 25.7152L12.5804 18.6039Z" fill="url(#paint4_linear_35_2010)"/>
<defs>
<linearGradient id="paint0_linear_35_2010" x1="17.9642" y1="0" x2="17.9642" y2="35.9283" gradientUnits="userSpaceOnUse">
<stop stop-color="#1766FF"/>
<stop offset="1" stop-color="#16ABFF"/>
</linearGradient>
<linearGradient id="paint1_linear_35_2010" x1="17.9642" y1="0" x2="17.9642" y2="35.9283" gradientUnits="userSpaceOnUse">
<stop stop-color="#1766FF"/>
<stop offset="1" stop-color="#16ABFF"/>
</linearGradient>
<linearGradient id="paint2_linear_35_2010" x1="17.9642" y1="0" x2="17.9642" y2="35.9283" gradientUnits="userSpaceOnUse">
<stop stop-color="#1766FF"/>
<stop offset="1" stop-color="#16ABFF"/>
</linearGradient>
<linearGradient id="paint3_linear_35_2010" x1="17.9642" y1="0" x2="17.9642" y2="35.9283" gradientUnits="userSpaceOnUse">
<stop stop-color="#1766FF"/>
<stop offset="1" stop-color="#16ABFF"/>
</linearGradient>
<linearGradient id="paint4_linear_35_2010" x1="17.9642" y1="0" x2="17.9642" y2="35.9283" gradientUnits="userSpaceOnUse">
<stop stop-color="#1766FF"/>
<stop offset="1" stop-color="#16ABFF"/>
</linearGradient>
</defs>
</svg>
