<svg viewBox="0 0 132 40" xmlns="http://www.w3.org/2000/svg" class="ui-icon main-header-body__logo" aria-hidden="true" role="img" style="" data-v-6194be0c="" data-v-7302e06d=""><path fill="white" d="M17.55 13.67c-1.03-1.217-2.695-1.861-4.736-1.861a7.561 7.561 0 0 0-4.99 1.789h-.062l1.165-8.083L8.515 5H4.041l-.515.454L0 29.978l.423.49h4.484l.515-.449 1.279-9.04c.427-2.985 1.912-4.495 4.417-4.495a2.246 2.246 0 0 1 1.794.65c.433.515.572 1.288.417 2.355l-1.505 10.479.423.49h4.463l.516-.454 1.546-10.824c.34-2.284-.087-4.196-1.221-5.51ZM36.864 14.278c-1.397-1.618-3.541-2.469-6.185-2.469-5.547 0-9.66 3.722-10.49 9.479-.417 2.917.14 5.366 1.619 7.072 1.402 1.613 3.54 2.469 6.185 2.469 5.541 0 9.66-3.722 10.49-9.484.443-2.918-.135-5.36-1.62-7.067ZM25.59 21.345c.449-3.13 2.062-4.85 4.469-4.85a2.938 2.938 0 0 1 2.345.922c.696.804.933 2.144.686 3.87-.449 3.13-2.062 4.856-4.474 4.856a2.945 2.945 0 0 1-2.346-.922c-.695-.804-.932-2.145-.68-3.876ZM47.587 5h-4.464l-.52.454-3.521 24.524.423.49h4.458l.52-.454 3.51-24.437.011-.087-.417-.49ZM65.243 12.165h-3.387l-.464.407-6.046 12.138h-.082l-2.516-12.03-.407-.515h-3.386l-.515.453-.516 3.696 3.727 13.973-.042.289c-.458.964-.793 1.299-2.525 1.299h-1.866l-.562.443-.515 3.742.422.49h1.882c5.293 0 7.02-2.418 8.875-5.835l7.794-14.324.551-3.732-.422-.494ZM82.219 13.67c-1.031-1.217-2.691-1.861-4.732-1.861a7.55 7.55 0 0 0-4.99 1.789h-.072l1.165-8.083L73.168 5h-4.464l-.516.454-3.52 24.524.423.49h4.458l.516-.449 1.299-9.04c.427-2.985 1.912-4.495 4.417-4.495a2.258 2.258 0 0 1 1.799.66c.427.515.572 1.288.417 2.355l-1.505 10.479.423.49h4.463l.516-.454L83.44 19.19c.325-2.294-.093-4.206-1.221-5.52ZM100.778 14.139c-1.32-1.546-3.325-2.33-5.8-2.33-5.324 0-9.277 3.722-10.127 9.479-.418 2.897.165 5.422 1.633 7.118 1.372 1.582 3.51 2.423 6.186 2.423 3.278 0 7.216-1.449 8.484-5.51l.031-.103-.433-.516h-4.459l-.469.402-.036.041c-.381.604-1.366.99-2.5.99a3.035 3.035 0 0 1-2.407-.912 2.417 2.417 0 0 1-.582-1.665l.299-.263h11.107l.516-.454.216-1.505c.402-2.933-.165-5.479-1.659-7.195Zm-3.789 4.933-.294.262H91.13l-.191-.221a3.407 3.407 0 0 1 3.427-2.619 2.577 2.577 0 0 1 2.062.784c.402.509.603 1.146.567 1.794h-.005ZM111.472 5h-4.458l-.521.454-3.52 24.524.417.49h4.464l.52-.454 3.511-24.437.01-.087-.423-.49ZM131.578 5h-4.464l-.515.454-1.175 8.144h-.093c-.289-.372-1.577-1.79-4.495-1.79-4.664 0-8.628 3.985-9.417 9.48-.427 2.979.176 5.577 1.691 7.33a6.55 6.55 0 0 0 5.046 2.21 7.218 7.218 0 0 0 4.995-1.793h.118l.186.969.397.464h4.123l.516-.454 3.51-24.437v-.082L131.578 5Zm-7.257 16.288c-.32 2.216-1.351 4.845-4.474 4.845a2.98 2.98 0 0 1-2.376-.907c-.691-.8-.913-2.108-.655-3.892.32-2.211 1.35-4.85 4.469-4.85a2.981 2.981 0 0 1 2.376.907c.696.81.917 2.119.66 3.897Z"></path></svg>