<svg xmlns="http://www.w3.org/2000/svg" width="70" height="24" viewBox="-5 0 70 24" fill="none">
<path d="M0.136719 22.1245C0.136719 22.8912 0.758224 23.5127 1.52489 23.5127H6.04162C6.80829 23.5127 7.42979 22.8912 7.42979 22.1245V16.2196H1.52489C0.758224 16.2196 0.136719 16.8411 0.136719 17.6078V22.1245Z" fill="white"/>
<path d="M7.42979 16.2196H15.0544V8.59504H7.42979V16.2196Z" fill="white"/>
<path d="M15.0544 22.1245C15.0544 22.8912 15.6759 23.5127 16.4425 23.5127H20.9593C21.7259 23.5127 22.3475 22.8912 22.3475 22.1245V17.6078C22.3475 16.8411 21.7259 16.2196 20.9593 16.2196H15.0544V22.1245Z" fill="white"/>
<path d="M15.0544 8.59504H20.9593C21.7259 8.59504 22.3475 7.97353 22.3475 7.20687V2.69013C22.3475 1.92347 21.7259 1.30196 20.9593 1.30196H16.4425C15.6759 1.30196 15.0544 1.92347 15.0544 2.69013V8.59504Z" fill="white"/>
<path d="M0.806494 7.20656C0.806494 7.60331 1.12813 7.92495 1.52489 7.92495H6.76002V2.68982C6.76002 2.29306 6.43838 1.97143 6.04162 1.97143H1.52489C1.12813 1.97143 0.806494 2.29306 0.806494 2.68982V7.20656Z" stroke="#FF5C00" stroke-width="1.33955"/>
<path d="M28.7266 23.097V19.5931L37.6941 11.6352C38.3671 11.0413 38.8422 10.4821 39.1194 9.9575C39.3965 9.43291 39.5351 8.94296 39.5351 8.48766C39.5351 7.83439 39.4015 7.25536 39.1342 6.75057C38.867 6.23588 38.4909 5.83501 38.0059 5.54797C37.5209 5.25103 36.9517 5.10256 36.2985 5.10256C35.6155 5.10256 35.0117 5.26093 34.4872 5.57766C33.9725 5.8845 33.5716 6.29526 33.2846 6.80996C32.9975 7.31475 32.8639 7.86409 32.8837 8.45796H28.7266C28.7266 6.99307 29.0482 5.72613 29.6916 4.65716C30.335 3.58818 31.2307 2.7617 32.3789 2.17773C33.5271 1.59375 34.8633 1.30176 36.3876 1.30176C37.7832 1.30176 39.0303 1.60859 40.129 2.22226C41.2375 2.82604 42.1086 3.67231 42.742 4.76108C43.3755 5.84986 43.6922 7.11184 43.6922 8.54704C43.6922 9.60612 43.5438 10.487 43.2468 11.1898C42.9499 11.8826 42.5094 12.526 41.9255 13.1199C41.3415 13.7039 40.6239 14.367 39.7727 15.1094L33.9824 20.187L33.6557 19.2962H43.6922V23.097H28.7266Z" fill="white"/>
<path d="M53.4768 23.5127C52.4078 23.5127 51.3883 23.2999 50.4183 22.8743C49.4483 22.4388 48.6021 21.8301 47.8795 21.0481C47.1669 20.2662 46.6571 19.3457 46.3503 18.2866L50.2699 17.2473C50.4777 18.0293 50.8835 18.638 51.4873 19.0735C52.101 19.4991 52.7642 19.7119 53.4768 19.7119C54.0905 19.7119 54.6497 19.5634 55.1545 19.2665C55.6692 18.9696 56.075 18.5687 56.372 18.0639C56.6788 17.5591 56.8322 16.9999 56.8322 16.3862C56.8322 15.4657 56.5155 14.6788 55.882 14.0255C55.2584 13.3624 54.4567 13.0308 53.4768 13.0308C53.1799 13.0308 52.8928 13.0753 52.6157 13.1644C52.3385 13.2436 52.0713 13.3574 51.814 13.5059L50.0026 10.3287L56.8025 4.68685L57.0994 5.54797H47.1817V1.74716H60.5439V5.54797L55.2584 10.6553L55.2287 9.52694C56.4561 9.715 57.4904 10.1456 58.3317 10.8186C59.183 11.4818 59.8263 12.3033 60.2618 13.2832C60.7072 14.2532 60.93 15.2875 60.93 16.3862C60.93 17.7323 60.5885 18.9448 59.9055 20.0237C59.2226 21.0927 58.3169 21.9439 57.1885 22.5774C56.0602 23.2009 54.8229 23.5127 53.4768 23.5127Z" fill="white"/>
<script xmlns="" id="bw-fido2-page-script"/></svg>